<?xml version="1.0" encoding="UTF-8"?><svg id="Ebene_2" xmlns="http://www.w3.org/2000/svg" viewBox="0 0 1313.37 2182.21"><defs><style>.cls-1{fill:#ffd83e;}.cls-2{opacity:.28;}.cls-3{fill:#f07f23;}.cls-4{fill:#c7360a;}.cls-5{fill:#ff8c00;}.cls-6{fill:#eaea28;}.cls-7{fill:#ffa400;}.cls-8{fill:#231f20;}</style></defs><g id="Layer_1"><g><path class="cls-2" d="M1225.36,971.99c-44.98-22.66-82.7-23.13-108.43-18.44v-233.48c20.32-6.94,34.94-26.19,34.94-48.87v-208.79c0-22.68-14.62-41.92-34.94-48.87V205.05s-8.71-6.36-27.57-15.84v-25.27s-127.2-92.84-464.41-92.84S160.54,163.94,160.54,163.94v25.27c-18.85,9.48-27.57,15.84-27.57,15.84v208.49c-20.32,6.94-34.94,26.19-34.94,48.87v208.79c0,22.68,14.62,41.92,34.94,48.87v233.48c-25.73-4.69-63.45-4.22-108.43,18.44-28.47,14.34-29.39,25.6-16.85,33.14,25.27,15.2,105.16,15.3,124.41-4.92,.29-.31,.58-.59,.87-.89v637.04c-20.32,6.94-34.94,26.19-34.94,48.87v208.79c0,22.68,14.62,41.92,34.94,48.87v30.41c0,16.24,2.46,32.08,7.09,47.09,14.27,46.25,49.14,84.52,96.04,102.15,27.69,10.41,61.43,20.97,101.76,30.26,72.99,16.8,167.59,29.43,287.09,29.43s214.1-12.63,287.09-29.43c40.34-9.28,74.07-19.84,101.76-30.26,46.9-17.63,81.77-55.9,96.04-102.15,4.63-15,7.09-30.84,7.09-47.09v-30.41c20.32-6.94,34.94-26.19,34.94-48.87v-208.79c0-22.68-14.62-41.92-34.94-48.87V999.32c.29,.3,.57,.58,.87,.89,19.25,20.22,99.15,20.12,124.41,4.92,12.54-7.54,11.62-18.8-16.85-33.14Z"/><g><path class="cls-5" d="M688.42,0C351.2,0,224,92.84,224,92.84V1762.01c0,62.63,38.72,118.83,97.34,140.87,73.44,27.61,191.93,56.34,367.07,56.34s293.63-28.73,367.07-56.34c58.62-22.04,97.34-78.24,97.34-140.87V92.84S1025.64,0,688.42,0Z"/><path class="cls-8" d="M1163.7,339.66h-49.68v312.08h49.68c28.52,0,51.64-23.12,51.64-51.64v-208.79c0-28.52-23.12-51.64-51.64-51.64Z"/><path class="cls-8" d="M213.14,339.66h49.68v312.08h-49.68c-28.52,0-51.64-23.12-51.64-51.64v-208.79c0-28.52,23.12-51.64,51.64-51.64Z"/><path class="cls-8" d="M1163.7,1562.48h-49.68v312.08h49.68c28.52,0,51.64-23.12,51.64-51.64v-208.79c0-28.52-23.12-51.64-51.64-51.64Z"/><path class="cls-8" d="M213.14,1562.48h49.68v312.08h-49.68c-28.52,0-51.64-23.12-51.64-51.64v-208.79c0-28.52,23.12-51.64,51.64-51.64Z"/><path class="cls-7" d="M1180.4,133.94V1902.19c0,16.24-2.46,32.08-7.09,47.09-14.27,46.25-49.14,84.52-96.04,102.15-27.69,10.41-61.43,20.97-101.76,30.26-72.99,16.8-167.59,29.43-287.09,29.43s-214.1-12.63-287.09-29.43c-40.34-9.28-74.07-19.84-101.76-30.26-46.9-17.63-81.77-55.9-96.04-102.15-4.63-15-7.09-30.84-7.09-47.09V133.94s24.87-18.15,81.57-38.86c52.32-19.1,131.73-40.39,243.72-51.59,49.14-4.92,104.55-7.89,166.69-7.89s117.54,2.98,166.68,7.89h0c111.99,11.2,191.4,32.49,243.72,51.59,56.7,20.71,81.57,38.86,81.57,38.86Z"/><path class="cls-8" d="M683.31,912.49s-253.57,1.58-379.99,47.37c0,0,22.38,88.47,122.92,167.41,11.68,9.17,26.09,14.18,40.93,14.18h432.27c14.85,0,29.26-5.01,40.93-14.18,100.54-78.94,122.92-167.41,122.92-167.41-126.42-45.79-379.99-47.37-379.99-47.37Z"/><path class="cls-1" d="M1117.26,852.57V208.12s-117.45-85.72-428.84-85.72-428.84,85.72-428.84,85.72V850.19c174.12-39.52,423.74-41.07,423.74-41.07,0,0,259.56,1.62,433.94,43.46Z"/><path class="cls-8" d="M285.13,1044.41s98.69,41.83,98.69,151.69v152.97c0,87.04-98.69,107.32-98.69,107.32v-411.98Z"/><path class="cls-8" d="M1081.5,1044.41s-98.69,41.83-98.69,151.69v152.97c0,87.04,108.9,107.32,108.9,107.32l-10.21-411.98Z"/><path class="cls-8" d="M370.84,1527.73v16.24c0,114.69,92.98,207.67,207.67,207.67h210.43c114.69,0,207.67-92.98,207.67-207.67v-16.24H370.84Z"/><path class="cls-1" d="M1074.79,1720.18h-9.38c-11.36,0-22.28,4.52-30.22,12.64-52.24,53.38-125.09,86.52-205.68,86.52h-291.57c-80.59,0-153.44-33.13-205.68-86.52-7.94-8.12-18.86-12.64-30.22-12.64h0c-23.45,0-42.46,19.01-42.46,42.46v84.18c0,57.83,35.75,109.73,89.89,130.08,67.81,25.5,177.23,52.02,338.95,52.02s271.14-26.52,338.95-52.02c54.13-20.35,89.89-72.25,89.89-130.08v-84.18c0-23.45-19.01-42.46-42.46-42.46Z"/><rect class="cls-1" x="417" y="1190.35" width="528.54" height="291.11" rx="49.09" ry="49.09"/><g><path class="cls-3" d="M1288.83,900.88c-65.83-33.16-116.12-18.8-136-10.3v20.36c5.38,.74,12.34,3.65,20.92,10.99,2.38,2.03,4.88,4.4,7.51,7.16,19.25,20.22,99.15,20.12,124.41,4.92,12.54-7.54,11.62-18.8-16.85-33.14Z"/><path class="cls-3" d="M88.01,900.88c65.83-33.16,116.12-18.8,136-10.3v20.36c-5.38,.74-12.34,3.65-20.92,10.99-2.38,2.03-4.88,4.4-7.51,7.16-19.25,20.22-99.15,20.12-124.41,4.92-12.54-7.54-11.62-18.8,16.85-33.14Z"/></g><g><path class="cls-6" d="M521.73,43.48c-90.47,109.67-190.29,80.45-243.72,51.59,52.32-19.1,131.73-40.39,243.72-51.59Z"/><path class="cls-6" d="M1098.83,95.07c-53.43,28.86-153.26,58.08-243.72-51.59,111.99,11.2,191.4,32.49,243.72,51.59Z"/></g><g><path class="cls-4" d="M401.33,2081.68c-40.34-9.28-74.07-19.84-101.76-30.26-46.9-17.63-81.77-55.9-96.04-102.15,52.9,11.91,139.6,44.36,197.8,132.41Z"/><path class="cls-4" d="M1173.31,1949.27c-14.27,46.25-49.14,84.52-96.04,102.15-27.69,10.41-61.43,20.97-101.76,30.26,58.2-88.05,144.9-120.5,197.8-132.41Z"/></g></g></g></g></svg>