<?xml version="1.0" encoding="UTF-8"?><svg id="Ebene_2" xmlns="http://www.w3.org/2000/svg" viewBox="0 0 1271.53 2080.87"><defs><style>.cls-1{opacity:.28;}.cls-2{fill:#55abf9;}.cls-3{fill:#2c84e1;}.cls-4{fill:#cc3b3b;}.cls-5{fill:#eaea28;}.cls-6{fill:#231f20;}</style></defs><g id="Layer_1"><g><path class="cls-1" d="M7.44,710.08c22.53,13.55,90,14.68,114.92-.57l21.87,753.17c-18.86,2.46-33.19,18.83-32.68,38.27l5.86,221.22c.52,19.69,16.09,35.43,35.41,36.52l5.01,172.49h0s.22,7.61,.22,7.61c.04,1.21,.09,2.43,.17,3.63,.07,1.1,.16,2.2,.26,3.29,.02,.13,.03,.26,.04,.38,.1,.99,.21,1.98,.34,2.97,.04,.31,.08,.62,.13,.93,.05,.38,.1,.76,.15,1.14,.07,.47,.14,.94,.22,1.41,.04,.22,.07,.44,.11,.66,.08,.46,.15,.92,.24,1.38,.08,.44,.16,.88,.24,1.31,.01,.07,.03,.15,.05,.22,.04,.19,.08,.39,.12,.58,.09,.44,.17,.88,.27,1.31,.09,.43,.19,.86,.29,1.29,.07,.29,.14,.59,.21,.88,.1,.41,.19,.81,.29,1.22,0,.01,0,.02,0,.03,.1,.4,.2,.79,.31,1.18,.08,.3,.16,.6,.24,.91,.11,.4,.21,.79,.32,1.19,.12,.44,.26,.88,.39,1.32,.06,.21,.12,.42,.19,.63,.13,.43,.26,.86,.4,1.29,.03,.08,.05,.16,.08,.24,.13,.43,.27,.84,.41,1.26,0,.02,.01,.04,.02,.06,.09,.26,.18,.51,.27,.77,.13,.36,.25,.73,.38,1.09,.16,.46,.33,.91,.49,1.36,.01,.03,.03,.07,.04,.1,.45,1.2,.91,2.38,1.4,3.56,.19,.46,.38,.91,.57,1.36,.16,.37,.33,.75,.5,1.12,.14,.32,.29,.64,.43,.96,.15,.32,.29,.64,.44,.96,.1,.22,.21,.45,.32,.67,.07,.14,.14,.29,.21,.43,.21,.44,.43,.87,.64,1.3,.13,.25,.24,.5,.37,.75,.18,.35,.36,.7,.54,1.04,.14,.27,.28,.54,.43,.81,.02,.03,.03,.06,.05,.1,.14,.28,.3,.56,.45,.83,.08,.15,.17,.29,.25,.43,.64,1.15,1.29,2.28,1.97,3.4,.09,.16,.18,.31,.28,.47,.78,1.28,1.59,2.54,2.43,3.79,.03,.05,.06,.1,.1,.16,.21,.31,.41,.62,.63,.92,.22,.32,.44,.64,.66,.95,.08,.11,.15,.22,.23,.33,.04,.06,.08,.11,.12,.17,.2,.28,.4,.56,.61,.83,.32,.45,.65,.89,.98,1.32,0,0,.01,.02,.02,.02,.15,.19,.29,.39,.44,.58,.05,.06,.09,.12,.14,.18,.5,.65,1.01,1.29,1.52,1.93,.09,.11,.18,.23,.27,.34,0,0,0,0,0,0,.35,.44,.71,.87,1.07,1.3,.24,.28,.48,.57,.72,.85,.04,.05,.08,.09,.12,.14,.94,1.1,1.91,2.17,2.89,3.23,.19,.21,.39,.41,.58,.61,.81,.86,1.64,1.71,2.49,2.54,.26,.25,.51,.51,.77,.76,1.04,1,2.09,1.99,3.17,2.96,0,0,.01,.01,.02,.02,1.06,.94,2.14,1.86,3.24,2.76,.31,.25,.62,.5,.92,.75,.9,.72,1.81,1.43,2.73,2.12,.25,.19,.5,.39,.76,.57,1.14,.84,2.31,1.66,3.49,2.46,.28,.19,.57,.37,.85,.56,.95,.63,1.9,1.24,2.87,1.83,.35,.22,.71,.44,1.06,.65,1.24,.74,2.49,1.47,3.77,2.16,4.61,2.51,9.44,4.7,14.48,6.52,.97,.35,1.96,.71,2.96,1.06,.22,.08,.44,.15,.66,.23,.79,.28,1.57,.55,2.38,.83,.29,.1,.59,.2,.89,.3,.74,.25,1.48,.51,2.23,.76,.32,.11,.65,.22,.97,.32,.74,.25,1.48,.49,2.23,.74,.35,.11,.7,.23,1.05,.34,.74,.24,1.47,.48,2.22,.72,.38,.12,.76,.24,1.14,.36,.74,.23,1.47,.47,2.22,.7,.39,.12,.8,.25,1.19,.37,.75,.23,1.5,.46,2.26,.69,.41,.12,.83,.25,1.24,.37,.76,.23,1.52,.46,2.29,.68,.42,.13,.86,.25,1.28,.38,.78,.23,1.56,.45,2.34,.68,.43,.12,.87,.25,1.31,.37,.79,.22,1.59,.45,2.39,.67,.46,.13,.92,.26,1.39,.38,.79,.22,1.59,.44,2.4,.66,.48,.13,.96,.26,1.44,.39,.81,.22,1.63,.44,2.45,.65,.49,.13,.97,.26,1.46,.38,.83,.22,1.66,.43,2.51,.65,.5,.13,1.01,.26,1.52,.39,.84,.21,1.68,.43,2.53,.64,.52,.13,1.05,.26,1.58,.39,.86,.21,1.72,.42,2.58,.63,.53,.13,1.07,.26,1.6,.39,.88,.21,1.76,.42,2.65,.63,.54,.13,1.08,.25,1.63,.38,.9,.21,1.81,.42,2.73,.63,.55,.12,1.09,.25,1.64,.37,.93,.21,1.86,.42,2.8,.63,.56,.12,1.12,.25,1.68,.37,.95,.21,1.91,.42,2.88,.62,.56,.12,1.12,.24,1.68,.36,.99,.21,1.98,.42,2.98,.63,.56,.12,1.11,.23,1.67,.35,1.03,.21,2.07,.42,3.11,.63,.55,.11,1.09,.22,1.64,.33,1.07,.21,2.15,.43,3.24,.64,.54,.11,1.07,.21,1.62,.32,1.13,.22,2.27,.44,3.41,.65,.51,.1,1.02,.19,1.53,.29,1.2,.22,2.41,.45,3.62,.67,.48,.09,.95,.18,1.44,.26,1.3,.24,2.61,.47,3.92,.7,.41,.07,.81,.14,1.22,.22,1.47,.26,2.96,.51,4.46,.77,.26,.04,.52,.09,.78,.13,1.75,.3,3.52,.59,5.3,.88,.01,0,.03,0,.04,0,63.87,10.44,149.5,17.87,263.91,17.87s200.01-7.43,263.88-17.87c.12-.02,.23-.04,.35-.06,1.68-.27,3.34-.55,4.99-.83,.35-.06,.69-.12,1.04-.18,1.41-.24,2.81-.48,4.2-.72,.48-.08,.95-.17,1.43-.25,1.24-.22,2.48-.44,3.7-.66,.55-.1,1.09-.2,1.64-.3,1.14-.21,2.28-.42,3.41-.63,.58-.11,1.15-.22,1.72-.33,1.08-.2,2.15-.41,3.22-.61,.6-.12,1.2-.23,1.8-.35,1.02-.2,2.04-.4,3.05-.6,.61-.12,1.21-.24,1.82-.37,.98-.2,1.96-.4,2.93-.6,.62-.13,1.23-.26,1.84-.38,.94-.2,1.88-.39,2.8-.59,.62-.13,1.24-.27,1.85-.4,.91-.19,1.81-.39,2.7-.59,.62-.14,1.23-.27,1.84-.41,.88-.2,1.76-.39,2.63-.59,.61-.14,1.21-.27,1.81-.41,.86-.2,1.71-.39,2.56-.59,.6-.14,1.2-.28,1.8-.42,.83-.2,1.65-.39,2.47-.59,.6-.14,1.19-.29,1.78-.43,.81-.2,1.61-.39,2.4-.59,.59-.14,1.17-.29,1.76-.44,.79-.2,1.57-.39,2.34-.59,.57-.14,1.14-.29,1.7-.44,.78-.2,1.55-.4,2.31-.6,.55-.14,1.1-.29,1.65-.43,.76-.2,1.51-.4,2.25-.6,.55-.15,1.1-.29,1.64-.44,.73-.2,1.46-.4,2.18-.6,.53-.15,1.07-.29,1.6-.44,.73-.2,1.44-.41,2.16-.61,.51-.15,1.03-.29,1.54-.44,.71-.2,1.4-.41,2.1-.61,.51-.15,1.02-.3,1.53-.45,.68-.2,1.35-.4,2.02-.6,.5-.15,1.01-.3,1.51-.45,.66-.2,1.31-.4,1.96-.6,.5-.15,1-.31,1.49-.46,.63-.2,1.25-.39,1.88-.59,.5-.16,.99-.31,1.48-.47,.61-.19,1.21-.39,1.81-.58,.49-.16,.98-.32,1.46-.48,.58-.19,1.15-.38,1.73-.57,.49-.16,.98-.33,1.47-.49,.53-.18,1.05-.36,1.57-.54,.52-.18,1.04-.35,1.55-.53,.44-.15,.88-.31,1.32-.46,.57-.2,1.15-.4,1.72-.6,.15-.05,.3-.11,.45-.16,.83-.29,1.65-.59,2.46-.88,1.27-.46,2.53-.94,3.77-1.45,.29-.12,.57-.25,.86-.37,.95-.4,1.9-.79,2.83-1.21,.38-.17,.76-.36,1.14-.54,.82-.38,1.65-.76,2.46-1.17,.73-.37,1.45-.75,2.18-1.13,.41-.22,.84-.43,1.25-.65,.01,0,.02-.01,.04-.02,1.34-.73,2.66-1.49,3.97-2.28,.32-.19,.63-.39,.95-.59,.96-.59,1.91-1.2,2.85-1.82,.41-.27,.81-.55,1.22-.83,.85-.58,1.7-1.18,2.53-1.78,.39-.29,.79-.57,1.17-.86,.91-.68,1.81-1.38,2.7-2.1,.27-.21,.54-.42,.81-.64,1.16-.95,2.31-1.92,3.43-2.92,.12-.11,.23-.22,.35-.32,.98-.88,1.95-1.78,2.9-2.7,.3-.29,.6-.59,.9-.89,.77-.76,1.52-1.53,2.27-2.32,.31-.33,.62-.66,.93-.99,.75-.82,1.49-1.65,2.22-2.48,.17-.2,.36-.39,.53-.59,.18-.2,.35-.41,.52-.61,.07-.08,.13-.15,.2-.23,0,0,0,0,0,0,.36-.43,.72-.86,1.07-1.3,.26-.32,.51-.64,.76-.97,.28-.36,.57-.72,.85-1.08,.06-.08,.13-.16,.19-.24,.2-.26,.39-.52,.59-.78,.33-.44,.66-.88,.98-1.32,.03-.05,.07-.09,.1-.14,.1-.14,.2-.27,.3-.41,.07-.1,.14-.19,.21-.29,.34-.48,.68-.96,1.01-1.45,.21-.31,.42-.61,.63-.92,0-.01,.01-.02,.02-.04,.87-1.3,1.72-2.62,2.53-3.96,.08-.13,.15-.26,.23-.38,.7-1.16,1.38-2.33,2.03-3.52,.07-.12,.14-.23,.2-.35,.16-.27,.31-.55,.45-.83,.16-.28,.31-.58,.46-.87h0c.15-.29,.31-.58,.46-.88,.04-.07,.07-.14,.11-.21,.42-.82,.83-1.65,1.23-2.49,.02-.05,.05-.1,.07-.15,.13-.27,.25-.54,.38-.81,.19-.4,.37-.79,.55-1.19,.24-.52,.47-1.05,.69-1.57,0-.01,.01-.02,.02-.04,.1-.23,.2-.47,.3-.7,.12-.28,.24-.56,.36-.85,.13-.33,.26-.66,.39-.99,.27-.66,.53-1.33,.78-1.99,.06-.15,.12-.3,.18-.46,.17-.45,.33-.91,.49-1.36,.07-.2,.14-.4,.21-.6,.13-.36,.25-.72,.38-1.09,.03-.08,.05-.15,.08-.23,.14-.42,.28-.84,.41-1.26,.03-.08,.05-.16,.08-.24,.12-.39,.24-.78,.36-1.16,.1-.32,.19-.63,.28-.95,.11-.37,.22-.74,.33-1.12,.15-.54,.3-1.08,.44-1.62,0,0,0-.01,0-.02,.09-.35,.18-.7,.27-1.05,.05-.2,.1-.39,.15-.58,0,0,0-.02,0-.03,.14-.56,.27-1.12,.4-1.69,.03-.14,.06-.29,.1-.43,.07-.32,.14-.63,.21-.95,.02-.11,.05-.21,.07-.32,.15-.71,.3-1.41,.43-2.11,.04-.23,.08-.45,.13-.68,.05-.28,.1-.56,.15-.84,.09-.51,.18-1.01,.26-1.52,.09-.57,.18-1.14,.27-1.71,.05-.35,.1-.71,.14-1.06,.11-.84,.22-1.68,.31-2.53,.04-.36,.08-.71,.12-1.07,.01-.13,.03-.26,.04-.39,.01-.12,.02-.25,.04-.38,.06-.58,.09-1.17,.14-1.76,.04-.46,.08-.91,.11-1.37,0-.05,0-.11,.01-.16,.04-.68,.06-1.36,.09-2.04,.02-.53,.06-1.06,.08-1.59l5.36-184.44c19.26-1.16,34.76-16.87,35.29-36.52l5.86-221.22c.51-19.39-13.75-35.74-32.55-38.25l21.74-748.85c24.93,15.25,92.39,14.12,114.92,.57,12.12-7.29,11.23-18.17-16.29-32.03-39.22-19.76-72.73-22.06-97.17-18.99l.47-16.14c18.9-1.52,34.01-17.08,34.52-36.47l5.86-221.22c.51-19.13-13.37-35.28-31.79-38.13l2.74-94.29c.9-30.87-13.44-60.22-38.35-78.48l-106.22-77.9c-22.41-16.44-49.48-25.31-77.28-25.31H330.95c-27.79,0-54.87,8.87-77.28,25.31l-106.22,77.9c-24.9,18.26-39.24,47.61-38.35,78.48l2.74,94.29c-18.42,2.85-32.3,19-31.79,38.13l5.86,221.22c.51,19.39,15.62,34.95,34.52,36.47l.47,16.14c-24.44-3.07-57.95-.77-97.17,18.99-27.52,13.86-28.4,24.74-16.29,32.03Z"/><g><path class="cls-6" d="M1154.9,275.54l-23.52-.62-7.85,296.38,23.52,.62c20.75,.55,38.02-15.83,38.57-36.58l5.86-221.22c.55-20.75-15.83-38.02-36.58-38.57Z"/><path class="cls-6" d="M180.09,275.54l23.52-.62,7.85,296.38-23.52,.62c-20.75,.55-38.02-15.83-38.57-36.58l-5.86-221.22c-.55-20.75,15.83-38.02,36.58-38.57Z"/></g><g><path class="cls-6" d="M1123.39,1386.93l-23.52-.62-7.85,296.38,23.52,.62c20.75,.55,38.02-15.83,38.57-36.58l5.86-221.22c.55-20.75-15.83-38.02-36.58-38.57Z"/><path class="cls-6" d="M211.6,1391.27l23.52-.62,7.85,296.38-23.52,.62c-20.75,.55-38.02-15.83-38.57-36.58l-5.86-221.22c-.55-20.75,15.83-38.02,36.58-38.57Z"/></g><path class="cls-3" d="M1162.43,181.69l-48.95,1686c-1.26,43.42-28.84,81.76-69.67,96.58-60.95,22.12-173.37,45.5-376.31,45.5s-315.36-23.37-376.31-45.5c-5.04-1.83-9.87-4.01-14.48-6.52-32.75-17.83-54.08-51.99-55.18-90.05l-.22-7.61h0S172.56,181.69,172.56,181.69c-.9-30.87,13.44-60.22,38.35-78.48L317.13,25.31C339.54,8.87,366.62,0,394.41,0H940.58c27.8,0,54.87,8.87,77.28,25.31l106.22,77.9c24.91,18.26,39.24,47.61,38.35,78.48Z"/><path class="cls-2" d="M667.5,1624.47c-291.74,0-389.27-50.14-417.65-71.59l7.52,258.89c1.14,39.42,26.21,74.13,63.24,87.67,55.87,20.43,159.35,42.13,346.89,42.13s291.02-21.7,346.89-42.13c37.03-13.54,62.1-48.26,63.24-87.67l7.52-258.89c-28.38,21.45-125.91,71.59-417.65,71.59Z"/><path class="cls-2" d="M1101.78,553.65l20.9-336.94c.82-28.39-12.36-55.38-35.27-72.18l-97.69-71.65c-20.61-15.12-45.51-23.27-71.07-23.27H416.34c-25.56,0-50.46,8.15-71.07,23.27l-97.69,71.65c-22.91,16.8-36.09,43.78-35.26,72.18l21.88,336.62c96.36-31.78,254.53-52.51,433.3-52.51s338.01,20.87,434.28,52.83Z"/><path class="cls-6" d="M667.5,531.08s-278.7,1.74-417.65,52.07c0,0,24.6,97.24,135.11,184,12.84,10.08,28.67,15.59,44.99,15.59h475.11c16.32,0,32.15-5.51,44.99-15.59,110.51-86.76,135.11-184,135.11-184-138.95-50.33-417.65-52.07-417.65-52.07Z"/><path class="cls-6" d="M229.85,656.9s108.47,85.91,108.47,311.53v314.15c0,178.74-86.67,220.4-86.67,220.4l-21.8-846.08Z"/><path class="cls-6" d="M1105.14,656.9s-108.47,85.91-108.47,311.53v314.15c0,178.74,86.67,220.4,86.67,220.4l21.8-846.08Z"/><path class="cls-6" d="M961.32,1413.07c-8.8-22.21-30.28-36.79-54.17-36.79H427.84c-23.89,0-45.37,14.57-54.17,36.79-13.15,33.18-36.06,83.02-68.4,124.62,0,0,64.94,52.07,362.22,52.07s362.22-52.07,362.22-52.07c-32.34-41.6-55.25-91.44-68.4-124.62Z"/><g><path class="cls-5" d="M339.42,24.42c-20.31,14.22-102.9,76.74-125.68,94.01-3.09,2.34-3.4,6.87-.66,9.62h0c8.94,8.94,23.12,9.88,33.16,2.19,32.09-24.59,99.48-75.3,125.46-87.7,34.65-16.54-8.66-34.65-32.29-18.11Z"/><path class="cls-5" d="M995.57,24.42c20.31,14.22,102.9,76.74,125.68,94.01,3.09,2.34,3.4,6.87,.66,9.62h0c-8.94,8.94-23.12,9.88-33.16,2.19-32.09-24.59-99.48-75.3-125.46-87.7-34.65-16.54,8.66-34.65,32.29-18.11Z"/></g><path class="cls-4" d="M397.98,1956c-148.47-23.38-176.37-95.11-176.68-95.92l.22,7.61c.04,1.21,.09,2.43,.17,3.63,.07,1.1,.16,2.2,.26,3.29,.02,.13,.03,.26,.04,.38,.17,1.69,.37,3.36,.62,5.03,.08,.58,.18,1.16,.27,1.73,.09,.58,.19,1.15,.3,1.73,.08,.44,.16,.88,.24,1.31,.13,.7,.28,1.41,.43,2.11,.12,.57,.25,1.13,.38,1.7,.13,.56,.26,1.13,.4,1.69,0,.01,0,.02,0,.03,.14,.55,.28,1.1,.43,1.65,.14,.54,.29,1.08,.44,1.62,.18,.62,.36,1.24,.55,1.86,.14,.46,.28,.92,.43,1.37,.03,.08,.05,.16,.08,.24,.13,.42,.27,.84,.41,1.26,.21,.64,.44,1.28,.66,1.92,.16,.46,.33,.91,.49,1.36,.43,1.16,.88,2.3,1.35,3.44,.22,.53,.44,1.06,.67,1.59,.23,.52,.46,1.05,.69,1.57,.22,.5,.45,.98,.68,1.48,.1,.22,.21,.45,.32,.67,.4,.83,.81,1.66,1.23,2.49,.19,.36,.37,.73,.56,1.08,.15,.29,.3,.58,.46,.87,.15,.28,.3,.56,.45,.83,1.55,2.83,3.22,5.58,5.02,8.25,.21,.31,.41,.62,.63,.92,.33,.49,.67,.97,1.01,1.45,.2,.28,.4,.56,.61,.83,.32,.45,.65,.89,.98,1.32,.2,.26,.39,.52,.59,.78,.59,.77,1.19,1.53,1.79,2.28,.35,.44,.71,.87,1.07,1.3,.24,.28,.48,.57,.72,.85,8.28,9.68,18.32,17.9,29.76,24.12,4.61,2.51,9.44,4.7,14.48,6.52,31.51,11.44,76.79,23.21,141.22,31.91h0c0-20.05-14.62-37.06-34.42-40.17Z"/><path class="cls-4" d="M937.01,1956c-19.8,3.12-34.42,20.13-34.42,40.17,64.43-8.7,109.7-20.48,141.22-31.91,5.04-1.83,9.87-4.01,14.48-6.52,11.44-6.22,21.48-14.44,29.76-24.12,.24-.28,.48-.56,.72-.85,.36-.43,.72-.86,1.07-1.3,.61-.75,1.2-1.51,1.79-2.28,.2-.26,.39-.52,.59-.78,.33-.44,.66-.88,.98-1.32,.21-.27,.4-.55,.61-.83,.34-.48,.68-.96,1.01-1.45,.21-.31,.42-.61,.63-.92,1.8-2.67,3.47-5.42,5.02-8.25,.16-.27,.31-.55,.45-.83,.16-.28,.31-.58,.46-.87,.19-.36,.38-.72,.56-1.08,.42-.82,.83-1.65,1.23-2.49,.11-.22,.21-.45,.32-.67,.23-.49,.46-.98,.68-1.48,.24-.52,.47-1.05,.69-1.57,.23-.52,.45-1.05,.67-1.59,.47-1.14,.92-2.28,1.35-3.44,.17-.45,.33-.91,.49-1.36,.23-.64,.45-1.28,.66-1.92,.14-.42,.28-.84,.41-1.26,.03-.08,.05-.16,.08-.24,.15-.46,.28-.92,.43-1.37,.19-.62,.37-1.24,.55-1.86,.15-.54,.3-1.08,.44-1.62,.15-.55,.29-1.1,.43-1.65,0,0,0-.02,0-.03,.14-.56,.27-1.12,.4-1.69,.13-.56,.26-1.13,.38-1.7,.15-.7,.3-1.41,.43-2.11,.08-.44,.17-.87,.24-1.31,.1-.58,.2-1.15,.3-1.73,.09-.58,.19-1.16,.27-1.73,.24-1.67,.45-3.34,.62-5.03,.01-.12,.02-.25,.04-.38,.1-1.09,.19-2.19,.26-3.29,.07-1.21,.13-2.42,.17-3.63l.22-7.61c-.31,.82-28.21,72.55-176.68,95.92Z"/><g><path class="cls-2" d="M1247.8,606.94c-63.62-32.05-112.24-18.17-131.44-9.95v19.68c5.2,.71,11.93,3.53,20.22,10.63,2.3,1.96,4.72,4.26,7.26,6.92,18.61,19.54,95.83,19.45,120.25,4.75,12.12-7.29,11.23-18.17-16.29-32.03Z"/><path class="cls-2" d="M87.19,606.94c63.62-32.05,112.24-18.17,131.44-9.95v19.68c-5.2,.71-11.93,3.53-20.22,10.63-2.3,1.96-4.72,4.26-7.26,6.92-18.61,19.54-95.83,19.45-120.25,4.75-12.12-7.29-11.23-18.17,16.29-32.03Z"/></g><rect class="cls-3" x="989.08" y="970.17" width="127.28" height="27.77"/><rect class="cls-3" x="220.44" y="970.17" width="127.28" height="27.77"/><rect class="cls-2" x="378.83" y="820.09" width="577.33" height="522.58" rx="130.6" ry="130.6"/></g></g></svg>