<?xml version="1.0" encoding="UTF-8"?><svg id="Ebene_2" xmlns="http://www.w3.org/2000/svg" viewBox="0 0 339.04 351"><defs><style>.cls-1{fill:red;}</style></defs><g id="Ebene_1-2"><g><path class="cls-1" d="M169.52,55c31.11,0,60.59,11.98,82.74,32.9l-26.81,9.61,92.06,77.99,21.52-118.72-30.9,11.08C274.97,25.17,223.96,0,169.52,0,93.31,0,28.3,48.84,4.11,116.86l46.46,39.36c9.26-57.31,59.07-101.21,118.95-101.21Z"/><path class="cls-1" d="M169.52,296c-31.11,0-60.59-11.98-82.74-32.9l26.81-9.61L21.52,175.5h0s0,0,0,0L0,294.22l30.9-11.08c33.17,42.69,84.18,67.86,138.62,67.86,78.59,0,145.28-51.93,167.56-123.27l-47.65-40.36c-5.98,60.89-57.48,108.63-119.92,108.63Z"/></g></g></svg>