<?xml version="1.0" encoding="UTF-8"?><svg id="Ebene_2" xmlns="http://www.w3.org/2000/svg" viewBox="0 0 3859.16 631.27"><defs><style>.cls-1{fill:red;}</style></defs><g id="Ebene_1-2"><g><path class="cls-1" d="M653.38,0h297.07l41.29,87.89-166.73,403.69-97.36,65.42h-155.09l-30.58,74.27h-148.53L653.38,0Zm117.96,74.27l-168.2,408.47h79.95L846.47,74.27h-75.14Z"/><path class="cls-1" d="M1048.55,0h373.53l-76.46,185.67h-148.54l45.88-111.4h-76.46l-152.9,371.34h72.08l-29.71,74.27h-72.96l-15.29,37.13h221.93l-29.71,74.27h-371.34l29.71-74.27h.87L1048.55,0Z"/><path class="cls-1" d="M1441.45,0h373.53l-76.46,185.67h-148.54l45.88-111.4h-76.46l-152.9,371.34h72.08l-29.71,74.27h-72.96l-15.29,37.13h903.44l-30.58,74.27H1181.51l29.71-74.27h.87L1441.45,0Z"/><path class="cls-1" d="M1835.64,0h253.96l39.25,58.88-173.96,422.45-87.51,58.34h-253.96L1835.64,0Zm100.84,63.49l-169.94,412.69h63.49L1999.97,63.49h-63.49Z"/><path class="cls-1" d="M2175.97,0h317.45l-26.11,63.49h-.03l-78.43,190.47h-126.98l78.43-190.47h-63.49l-91.5,222.22h190.47l-23.24,56.44-2.9,7.05-78.43,190.47h-317.45l26.11-63.49h.02l39.23-95.24h126.98l-39.22,95.24h63.49l52.29-126.98h-190.47l26.11-63.49h.03L2175.97,0Z"/><path class="cls-1" d="M259.94,0h371.33l-30.55,74.27h-.03l-91.74,222.8h-148.54l91.75-222.8h-74.27l-107.03,259.94h222.8l-27.18,66.01-3.4,8.25-91.74,222.8H0l30.55-74.27h.03l45.88-111.4H224.99l-45.88,111.4h74.27l61.17-148.54H91.75l30.55-74.27h.03L259.94,0Z"/><path class="cls-1" d="M2486.75,0h400.03l-29.93,74.27h-129.34l-229.36,557h-148.54l229.36-557h-128.87L2486.75,0Z"/><path class="cls-1" d="M2876.82,0h373.52l-76.46,185.67h-148.54l45.88-111.4h-76.46l-152.9,371.34h72.08l-29.71,74.27h-72.96l-15.29,37.13h221.93l-29.71,74.27h-371.34l29.71-74.27h.87L2876.82,0Z"/><path class="cls-1" d="M3273.14,0h295.28l45.91,68.87-155.76,378.29-75.82,35.58,33.54,67.09-33.54,81.45h-148.54l45.87-111.4h-74.27l-45.86,111.4h-148.89L3273.14,0Zm116.17,74.27l-152.9,371.34h74.27l152.9-371.34h-74.27Z"/><g><path class="cls-1" d="M3647.85,0h83.79l-6.89,16.76h-25.14l-51.76,125.69h-33.52l51.76-125.69h-25.13l6.89-16.76Z"/><path class="cls-1" d="M3725.1,0h33.52V83.79L3825.65,0h33.52l-58.65,142.45h-33.52l23.1-56.12-31.49,39.36h-33.52v-44.29l-25.14,61.05h-33.52L3725.1,0Z"/></g></g></g></svg>