<?xml version="1.0" encoding="UTF-8"?><svg id="Ebene_2" xmlns="http://www.w3.org/2000/svg" viewBox="0 0 726.66 472.77"><defs><style>.cls-1,.cls-2{fill:#fff;}.cls-2{stroke:#000;stroke-miterlimit:10;stroke-width:9px;}</style></defs><g id="Ebene_1-2"><g><g><rect class="cls-1" x="256.9" y="1.5" width="215.89" height="215.89" rx="10.5" ry="10.5"/><path d="M462.29,3c4.96,0,9,4.04,9,9V206.89c0,4.96-4.04,9-9,9h-194.89c-4.96,0-9-4.04-9-9V12c0-4.96,4.04-9,9-9h194.89m0-3h-194.89c-6.6,0-12,5.4-12,12V206.89c0,6.6,5.4,12,12,12h194.89c6.6,0,12-5.4,12-12V12c0-6.6-5.4-12-12-12h0Z"/></g><g><rect class="cls-1" x="1.5" y="255.39" width="215.89" height="215.89" rx="10.5" ry="10.5"/><path d="M206.89,256.89c4.96,0,9,4.04,9,9v194.89c0,4.96-4.04,9-9,9H12c-4.96,0-9-4.04-9-9v-194.89c0-4.96,4.04-9,9-9H206.89m0-3H12c-6.6,0-12,5.4-12,12v194.89c0,6.6,5.4,12,12,12H206.89c6.6,0,12-5.4,12-12v-194.89c0-6.6-5.4-12-12-12h0Z"/></g><g><rect class="cls-1" x="509.27" y="255.39" width="215.89" height="215.89" rx="10.5" ry="10.5"/><path d="M714.66,256.89c4.96,0,9,4.04,9,9v194.89c0,4.96-4.04,9-9,9h-194.89c-4.96,0-9-4.04-9-9v-194.89c0-4.96,4.04-9,9-9h194.89m0-3h-194.89c-6.6,0-12,5.4-12,12v194.89c0,6.6,5.4,12,12,12h194.89c6.6,0,12-5.4,12-12v-194.89c0-6.6-5.4-12-12-12h0Z"/></g><g><rect class="cls-1" x="255.39" y="252.34" width="215.89" height="218.93" rx="10.58" ry="10.58"/><path d="M460.69,253.84c5.01,0,9.08,4.07,9.08,9.08v197.76c0,5.01-4.07,9.08-9.08,9.08h-194.72c-5.01,0-9.08-4.07-9.08-9.08v-197.76c0-5.01,4.07-9.08,9.08-9.08h194.72m0-3h-194.72c-6.65,0-12.08,5.44-12.08,12.08v197.76c0,6.65,5.44,12.08,12.08,12.08h194.72c6.65,0,12.08-5.44,12.08-12.08v-197.76c0-6.65-5.44-12.08-12.08-12.08h0Z"/></g><path class="cls-2" d="M363.33,317.98h41.72c.74,0,1.22,.77,.9,1.43l-20.97,43.91-20.75,43.46c-.36,.76-1.44,.76-1.8,0l-20.75-43.46-20.97-43.91c-.32-.66,.17-1.43,.9-1.43h41.72Z"/><path class="cls-2" d="M154.79,361.81v42.31c0,.74-.77,1.22-1.44,.9l-43.91-21.26-43.49-21.05c-.75-.36-.75-1.44,0-1.8l43.49-21.05,43.91-21.26c.66-.32,1.44,.16,1.44,.9v42.31Z"/><path class="cls-2" d="M364.85,150.37h-41.73c-.73,0-1.22-.76-.9-1.43l20.98-44.55,20.75-44.06c.36-.77,1.45-.77,1.81,0l20.75,44.06,20.98,44.55c.31,.66-.17,1.43-.9,1.43h-41.73Z"/><path class="cls-2" d="M571.87,361.81v-42.31c0-.74,.77-1.22,1.44-.9l43.91,21.26,43.49,21.05c.75,.36,.75,1.44,0,1.8l-43.49,21.05-43.91,21.26c-.66,.32-1.44-.16-1.44-.9v-42.31Z"/></g></g></svg>