<?xml version="1.0" encoding="UTF-8"?><svg id="Ebene_2" xmlns="http://www.w3.org/2000/svg" viewBox="0 0 726.66 472.77"><defs><style>.cls-1{fill:#fff;}</style></defs><g id="Ebene_1-2"><g><g><rect class="cls-1" x="256.9" y="1.5" width="215.89" height="215.89" rx="10.5" ry="10.5"/><path d="M462.29,3c4.96,0,9,4.04,9,9V206.89c0,4.96-4.04,9-9,9h-194.89c-4.96,0-9-4.04-9-9V12c0-4.96,4.04-9,9-9h194.89m0-3h-194.89c-6.6,0-12,5.4-12,12V206.89c0,6.6,5.4,12,12,12h194.89c6.6,0,12-5.4,12-12V12c0-6.6-5.4-12-12-12h0Z"/></g><g><rect class="cls-1" x="1.5" y="255.39" width="215.89" height="215.89" rx="10.5" ry="10.5"/><path d="M206.89,256.89c4.96,0,9,4.04,9,9v194.89c0,4.96-4.04,9-9,9H12c-4.96,0-9-4.04-9-9v-194.89c0-4.96,4.04-9,9-9H206.89m0-3H12c-6.6,0-12,5.4-12,12v194.89c0,6.6,5.4,12,12,12H206.89c6.6,0,12-5.4,12-12v-194.89c0-6.6-5.4-12-12-12h0Z"/></g><g><rect class="cls-1" x="509.27" y="255.39" width="215.89" height="215.89" rx="10.5" ry="10.5"/><path d="M714.66,256.89c4.96,0,9,4.04,9,9v194.89c0,4.96-4.04,9-9,9h-194.89c-4.96,0-9-4.04-9-9v-194.89c0-4.96,4.04-9,9-9h194.89m0-3h-194.89c-6.6,0-12,5.4-12,12v194.89c0,6.6,5.4,12,12,12h194.89c6.6,0,12-5.4,12-12v-194.89c0-6.6-5.4-12-12-12h0Z"/></g><g><rect class="cls-1" x="255.39" y="255.39" width="215.89" height="215.89" rx="10.5" ry="10.5"/><path d="M460.77,256.89c4.96,0,9,4.04,9,9v194.89c0,4.96-4.04,9-9,9h-194.89c-4.96,0-9-4.04-9-9v-194.89c0-4.96,4.04-9,9-9h194.89m0-3h-194.89c-6.6,0-12,5.4-12,12v194.89c0,6.6,5.4,12,12,12h194.89c6.6,0,12-5.4,12-12v-194.89c0-6.6-5.4-12-12-12h0Z"/></g><path d="M420.65,67.56l-24.24,83.64h-12.24l-19.44-67.32-20.16,67.32-12.12,.12-23.4-83.76h11.64l18.24,70.92,20.16-70.92h12.24l19.2,70.68,18.36-70.68h11.76Z"/><path d="M127.68,386.25h-36.48l-6.72,18.6h-11.52l30.24-83.16h12.6l30.12,83.16h-11.52l-6.72-18.6Zm-3.12-8.88l-15.12-42.24-15.12,42.24h30.24Z"/><path d="M349.05,403.17c-4.36-1.96-7.78-4.68-10.26-8.16-2.48-3.48-3.76-7.5-3.84-12.06h11.64c.4,3.92,2.02,7.22,4.86,9.9,2.84,2.68,6.98,4.02,12.42,4.02s9.3-1.3,12.3-3.9c3-2.6,4.5-5.94,4.5-10.02,0-3.2-.88-5.8-2.64-7.8-1.76-2-3.96-3.52-6.6-4.56-2.64-1.04-6.2-2.16-10.68-3.36-5.52-1.44-9.94-2.88-13.26-4.32-3.32-1.44-6.16-3.7-8.52-6.78-2.36-3.08-3.54-7.22-3.54-12.42,0-4.56,1.16-8.6,3.48-12.12,2.32-3.52,5.58-6.24,9.78-8.16s9.02-2.88,14.46-2.88c7.84,0,14.26,1.96,19.26,5.88,5,3.92,7.82,9.12,8.46,15.6h-12c-.4-3.2-2.08-6.02-5.04-8.46-2.96-2.44-6.88-3.66-11.76-3.66-4.56,0-8.28,1.18-11.16,3.54-2.88,2.36-4.32,5.66-4.32,9.9,0,3.04,.86,5.52,2.58,7.44,1.72,1.92,3.84,3.38,6.36,4.38,2.52,1,6.06,2.14,10.62,3.42,5.52,1.52,9.96,3.02,13.32,4.5,3.36,1.48,6.24,3.76,8.64,6.84,2.4,3.08,3.6,7.26,3.6,12.54,0,4.08-1.08,7.92-3.24,11.52-2.16,3.6-5.36,6.52-9.6,8.76-4.24,2.24-9.24,3.36-15,3.36s-10.46-.98-14.82-2.94Z"/><path d="M630.48,326.61c6.68,3.4,11.8,8.26,15.36,14.58,3.56,6.32,5.34,13.76,5.34,22.32s-1.78,15.98-5.34,22.26c-3.56,6.28-8.68,11.08-15.36,14.4-6.68,3.32-14.58,4.98-23.7,4.98h-26.04v-83.64h26.04c9.12,0,17.02,1.7,23.7,5.1Zm1.02,60.96c5.68-5.72,8.52-13.74,8.52-24.06s-2.86-18.52-8.58-24.36c-5.72-5.84-13.94-8.76-24.66-8.76h-15.12v65.76h15.12c10.8,0,19.04-2.86,24.72-8.58Z"/></g></g></svg>